<svg xmlns="http://www.w3.org/2000/svg" xmlns:xlink="http://www.w3.org/1999/xlink"><symbol id="i-arrow" viewBox="0 0 64.05 26.9"><path d="M62.8 14.3H1a.88.88 0 1 1 0-1.75h61.8a.88.88 0 1 1 0 1.75z"/><path d="M50.78 26.52a.6.6 0 0 1-.4-.1.48.48 0 0 1 0-.7l12.2-12.2-12.2-12.3a.48.48 0 0 1 0-.7.48.48 0 0 1 .7 0l12.5 12.6c.1.1.1.2.1.4s-.1.3-.1.4l-12.5 12.4c-.08.1-.2.2-.3.2z"/><path d="M50.78 26.9a.91.91 0 0 1-.67-.21.86.86 0 0 1 0-1.23L62 13.52l-11.94-12a.86.86 0 0 1 0-1.23.86.86 0 0 1 1.23 0l12.5 12.6a.83.83 0 0 1 .21.66 1 1 0 0 1-.09.41v.16l-.12.1-12.5 12.4a.82.82 0 0 1-.51.28zm0-26.15a.12.12 0 0 0-.09 0 .11.11 0 0 0 0 .17l12.41 12.6L50.64 26a.13.13 0 0 0 0 .17h.07l.09-.09 12.43-12.35v-.09a.3.3 0 0 0 0-.13 1.44 1.44 0 0 0 0-.16L50.81.79a.12.12 0 0 0-.08-.04z"/></symbol><symbol id="i-chevron" viewBox="0 0 14 14"><path d="M3.5 5.25L7 8.75l3.5-3.5"/></symbol><symbol id="i-close" viewBox="0 0 22 22"><path d="M1 1l10 10m10 10L11 11m0 0L21 1 1 21"/></symbol><symbol id="i-plus" viewBox="0 0 14 14"><path d="M7 2.917v8.166M2.918 7h8.167" stroke-width="1.4" stroke-linecap="round" stroke-linejoin="round"/></symbol></svg>