<?xml version="1.0" standalone="no"?>
<!DOCTYPE svg PUBLIC "-//W3C//DTD SVG 20010904//EN"
 "http://www.w3.org/TR/2001/REC-SVG-20010904/DTD/svg10.dtd">
<svg version="1.0" xmlns="http://www.w3.org/2000/svg"
 width="700.000000pt" height="700.000000pt" viewBox="0 0 700.000000 700.000000"
 preserveAspectRatio="xMidYMid meet">
<metadata>
Created by potrace 1.11, written by Peter Selinger 2001-2013
</metadata>
<g transform="translate(0.000000,700.000000) scale(0.100000,-0.100000)"
fill="#000000" stroke="none">
<path d="M3930 4934 c-225 -60 -456 -322 -565 -639 -21 -62 -29 -105 -33 -192
l-5 -113 -123 0 -124 0 0 -75 0 -75 125 0 125 0 0 -573 0 -573 -100 -49 c-91
-45 -100 -52 -100 -77 l0 -28 341 0 340 0 -3 27 c-3 24 -15 32 -113 74 l-110
48 -3 575 -2 576 215 0 215 0 0 75 0 75 -215 0 -215 0 0 153 c0 287 29 418
106 486 58 51 117 65 238 59 64 -4 113 -14 166 -33 41 -15 82 -29 91 -32 13
-4 25 16 53 86 45 115 47 152 6 181 -79 56 -200 73 -310 44z"/>
</g>
</svg>
